<?xml version="1.0" encoding="UTF-8"?>
<svg width="424px" height="352px" viewBox="0 0 424 352" version="1.1" xmlns="http://www.w3.org/2000/svg" xmlns:xlink="http://www.w3.org/1999/xlink">
    <!-- Generator: Sketch 47.1 (45422) - http://www.bohemiancoding.com/sketch -->
    <title>logo-light</title>
    <desc>Created with Sketch.</desc>
    <defs></defs>
    <g id="Page-1" stroke="none" stroke-width="1" fill="none" fill-rule="evenodd">
        <g id="logos" transform="translate(-582.000000, -209.000000)">
            <g id="logo-light" transform="translate(579.000000, 208.000000)">
                <g id="logo" transform="translate(96.000000, 0.000000)">
                    <polygon id="Rectangle-3" fill="#BCBDBF" points="76.3164063 134.482422 155.29541 153.541992 176.471191 233.048828 20.9384766 190.204102"></polygon>
                    <polygon id="Rectangle-2" fill="#BCBDBF" points="134.321289 76.0527344 190.049805 20.4707031 232.787109 176.292969 176.249023 233.137695"></polygon>
                    <polygon id="Rectangle" fill="#FFFFFF" points="111.806641 0.974609375 190.072266 20.3398437 20.9902344 190.287109 0.3984375 113.083984"></polygon>
                    <polygon id="Triangle" fill="#FFFFFF" points="155.068359 153.519043 176.486816 233.112793 98.0551758 211.482666"></polygon>
                </g>
                <path d="M3.52,351 L3.52,294.44 L31.68,294.44 C37.04,294.44 42.16,294.76 45.6,296.2 C53.12,299.4 55.36,307.08 55.36,312.52 C55.36,314.68 55.12,319.72 51.04,323.88 C48.8,326.28 46.4,327.16 43.76,328.2 L57.52,351 L37.68,351 L26.72,331.08 L21.44,331.08 L21.44,351 L3.52,351 Z M28.8,306.28 L21.44,306.28 L21.44,319.48 L28.88,319.48 C31.84,319.48 37.52,319.32 37.52,312.92 C37.52,306.44 31.92,306.28 28.8,306.28 Z M60.16,351 L78.08,351 L78.08,294.52 L60.16,294.52 L60.16,351 Z M125.36,329.08 C124.72,331 122.24,338.36 113.92,338.36 C105.12,338.36 102,330.44 102,322.04 C102,319.8 102,313.4 106.24,309.32 C107.44,308.12 109.92,306.28 113.84,306.28 C121.36,306.28 124.08,312.28 125.52,315.64 L140.48,308.2 C139.28,305.96 138.16,304.04 135.76,301.56 C129.84,295.48 121.68,292.44 113.12,292.44 C94,292.44 83.84,307.88 83.84,323.08 C83.84,337.56 92.96,352.76 113.12,352.76 C121.2,352.76 129.28,350.12 135.04,344.44 C137.76,341.72 139.12,339.16 140.56,336.44 L125.36,329.08 Z M145.12,351 L192.24,351 L192.24,338.76 L163.04,338.76 L163.04,327.56 L188.08,327.56 L188.08,315.32 L163.04,315.32 L163.04,306.92 L189.84,306.92 L189.84,294.52 L145.12,294.52 L145.12,351 Z" id="logo-text" fill="#BBBBBB"></path>
                <path d="M193.92,351 L215.52,294.52 L235.84,294.52 L256.96,351 L237.76,351 L235.28,343.16 L215.6,343.16 L213.12,351 L193.92,351 Z M231.6,330.52 L225.6,310.6 L219.44,330.52 L231.6,330.52 Z M260.88,351 L260.88,294.44 L293.2,294.44 C299.36,294.68 304.72,295 309.28,299.72 C313.44,304.12 314,309.32 314,312.92 C314,317.64 313.04,322.76 308.64,327.32 C303.92,332.2 298.72,332.44 292.56,332.6 L278.8,332.6 L278.8,351 L260.88,351 Z M288.88,306.36 L278.8,306.36 L278.8,320.76 L289.04,320.76 C290,320.68 291.04,320.68 292,320.36 C294.72,319.48 296.32,316.92 296.32,313.48 C296.32,306.84 291.12,306.52 288.88,306.36 Z M317.52,351 L317.52,294.44 L349.84,294.44 C356,294.68 361.36,295 365.92,299.72 C370.08,304.12 370.64,309.32 370.64,312.92 C370.64,317.64 369.68,322.76 365.28,327.32 C360.56,332.2 355.36,332.44 349.2,332.6 L335.44,332.6 L335.44,351 L317.52,351 Z M345.52,306.36 L335.44,306.36 L335.44,320.76 L345.68,320.76 C346.64,320.68 347.68,320.68 348.64,320.36 C351.36,319.48 352.96,316.92 352.96,313.48 C352.96,306.84 347.76,306.52 345.52,306.36 Z M371.2,340.28 C373.76,343.4 377.92,348.44 386.88,351 C391.28,352.28 395.76,352.68 400,352.68 C403.12,352.68 414.48,352.68 421.6,345.4 C424.16,342.76 426.64,338.6 426.64,332.68 C426.64,318.68 414.16,316.44 401.6,314.28 C396.72,313.4 393.84,312.68 393.84,309.96 C393.84,307.08 397.2,306.28 400.24,306.28 C403.12,306.28 407.44,306.76 410.72,308.36 C413.2,309.64 414.16,310.92 415.04,312.04 L426.24,302.68 C424.24,300.6 422.16,298.36 417.92,296.28 C413.28,293.96 407.36,292.68 400.88,292.68 C390.72,292.68 381.2,295.96 377.52,304.28 C376.48,306.52 375.92,309.08 375.92,311.56 C375.92,323.48 386.08,326.68 391.28,328.04 C393.6,328.6 404,330.44 406,331.16 C409.12,332.2 409.12,334.28 409.12,334.68 C409.12,338.76 402.08,338.92 400.64,338.92 C397.92,338.92 395.04,338.44 392.72,337.64 C387.84,336.04 386.48,333.96 384.88,331.48 L371.2,340.28 Z" id="logo-text" fill="#FFFFFF"></path>
            </g>
        </g>
    </g>
</svg>